<?xml version="1.0"?>
<svg xmlns="http://www.w3.org/2000/svg" xmlns:xlink="http://www.w3.org/1999/xlink" xmlns:svgjs="http://svgjs.com/svgjs" version="1.1" width="512" height="512" x="0" y="0" viewBox="0 0 64 64" style="enable-background:new 0 0 512 512" xml:space="preserve" class=""><g><path xmlns="http://www.w3.org/2000/svg" d="m3 3h58v58h-58z" fill="#394d5c" data-original="#394d5c" style="" class=""/><path xmlns="http://www.w3.org/2000/svg" d="m3 3h16v8h-16z" fill="#394d5c" data-original="#7d8d9c" style="" class=""/><path xmlns="http://www.w3.org/2000/svg" d="m6 6h2v2h-2z" fill="#394d5c" data-original="#e1462b" style="" class=""/><path xmlns="http://www.w3.org/2000/svg" d="m10 6h2v2h-2z" fill="#394d5c" data-original="#f9bb4b" style="" class=""/><path xmlns="http://www.w3.org/2000/svg" d="m14 6h2v2h-2z" fill="#394d5c" data-original="#55b56a" style="" class=""/><path xmlns="http://www.w3.org/2000/svg" d="m19 3h42v8h-42z" fill="#394d5c" data-original="#aabece" style="" class=""/><path xmlns="http://www.w3.org/2000/svg" d="m53 61h-42v-46h34l8 8z" fill="#f4f4e6" data-original="#f4f4e6" style="" class=""/><path xmlns="http://www.w3.org/2000/svg" d="m53 23h-8v-8z" fill="#d6d5c5" data-original="#d6d5c5" style="" class=""/><circle xmlns="http://www.w3.org/2000/svg" cx="32" cy="30" fill="#ffd782" r="11" data-original="#ffd782" style="" class=""/><g xmlns="http://www.w3.org/2000/svg" fill="#394d5c"><path d="m29.293 25.293-1.293 1.293-1.293-1.293-1.414 1.414 1.293 1.293-1.293 1.293 1.414 1.414 1.293-1.293 1.293 1.293 1.414-1.414-1.293-1.293 1.293-1.293z" fill="#394d5c" data-original="#394d5c" style="" class=""/><path d="m38.707 26.707-1.414-1.414-1.293 1.293-1.293-1.293-1.414 1.414 1.293 1.293-1.293 1.293 1.414 1.414 1.293-1.293 1.293 1.293 1.414-1.414-1.293-1.293z" fill="#394d5c" data-original="#394d5c" style="" class=""/><path d="m36.051 36.316c-.03-.086-.864-2.316-4.051-2.316-3.242 0-4.043 2.293-4.051 2.316l-1.9-.632c.051-.151 1.284-3.684 5.951-3.684s5.9 3.533 5.949 3.684z" fill="#394d5c" data-original="#394d5c" style="" class=""/><path d="m24 57h-2v-3h-5a1 1 0 0 1 -.759-1.65l6-7a1 1 0 0 1 1.759.65v6h2v2h-2zm-4.826-5h2.826v-3.3z" fill="#394d5c" data-original="#394d5c" style="" class=""/><path d="m46 57h-2v-3h-5a1 1 0 0 1 -.759-1.65l6-7a1 1 0 0 1 1.759.65v6h2v2h-2zm-4.826-5h2.826v-3.3z" fill="#394d5c" data-original="#394d5c" style="" class=""/><path d="m33 57h-2a3 3 0 0 1 -3-3v-6a3 3 0 0 1 3-3h2a3 3 0 0 1 3 3v6a3 3 0 0 1 -3 3zm-2-10a1 1 0 0 0 -1 1v6a1 1 0 0 0 1 1h2a1 1 0 0 0 1-1v-6a1 1 0 0 0 -1-1z" fill="#394d5c" data-original="#394d5c" style="" class=""/></g><path xmlns="http://www.w3.org/2000/svg" d="m16 30h-2v-11a1 1 0 0 1 1-1h5v2h-4z" fill="#d6d5c5" data-original="#d6d5c5" style="" class=""/><path xmlns="http://www.w3.org/2000/svg" d="m14 32h2v2h-2z" fill="#d6d5c5" data-original="#d6d5c5" style="" class=""/></g></svg>
