<svg id="Layer_1" enable-background="new 0 0 512 512" height="512" viewBox="0 0 512 512" width="512" xmlns="http://www.w3.org/2000/svg"><g><path d="m464.867 351.333h-160.667c-25.772 0-47.133-20.863-47.133-47.133 0-25.928 21.075-47.133 47.133-47.133h2.49c7.03-36.563 39.255-64.267 77.828-64.267 38.606 0 70.838 27.707 77.862 64.267h2.487c26.06 0 47.133 21.068 47.133 47.133 0 26.233-21.302 47.133-47.133 47.133z" fill="#fffaf5"/><path d="m464.867 351.333c25.831 0 47.133-20.9 47.133-47.133 0-26.065-21.073-47.133-47.133-47.133h-2.487c-7.024-36.56-39.255-64.267-77.862-64.267v158.533z" fill="#f5e9e4"/><path d="m223.867 415.6c-8.284 0-15-6.716-15-15v-64.267c0-8.284 6.716-15 15-15s15 6.716 15 15v64.267c0 8.284-6.716 15-15 15z" fill="#ff9632"/><path d="m288.133 415.6c-8.284 0-15-6.716-15-15v-64.267c0-8.284 6.716-15 15-15s15 6.716 15 15v64.267c0 8.284-6.716 15-15 15z" fill="#fa6e34"/><path d="m256 0c-88.004 0-159.6 71.596-159.6 159.6 0 45.45 17.697 88.177 49.83 120.31l67.03 67.03c2.813 2.813 6.628 4.394 10.606 4.394h64.267c3.979 0 7.793-1.581 10.606-4.394l67.03-67.03c32.133-32.133 49.83-74.86 49.83-120.31.001-88.004-71.595-159.6-159.599-159.6z" fill="#d7f5dc"/><path d="m298.74 346.94 67.03-67.03c32.133-32.133 49.83-74.86 49.83-120.31 0-88.004-71.596-159.6-159.6-159.6v351.333h32.133c3.979 0 7.794-1.58 10.607-4.393z" fill="#80dacb"/><path d="m266.798 4.582c-2.827-2.927-6.729-4.58-10.798-4.58s-7.971 1.653-10.798 4.58c-44.796 46.388-68.469 108.242-68.469 171.086 0 62.867 23.693 124.714 68.469 171.079 2.928 3.023 6.845 4.583 10.798 4.583 3.95 0 7.868-1.559 10.798-4.583 44.795-46.385 68.469-108.242 68.469-171.079 0-62.868-23.689-124.715-68.469-171.086z" fill="#28b4b4"/><path d="m335.267 175.669c0-62.868-23.689-124.715-68.469-171.086-2.827-2.927-6.729-4.58-10.798-4.58v351.329c3.95 0 7.868-1.559 10.798-4.583 44.794-46.387 68.469-108.243 68.469-171.08z" fill="#0096aa"/><path d="m304.2 512h-96.4c-8.284 0-15-6.716-15-15v-96.4c0-8.284 6.716-15 15-15h96.4c8.284 0 15 6.716 15 15v96.4c0 8.284-6.716 15-15 15z" fill="#ffbe03"/><path d="m319.2 497v-96.4c0-8.284-6.716-15-15-15h-48.2v126.4h48.2c8.284 0 15-6.716 15-15z" fill="#ff9632"/><path d="m320.267 415.6h-127.979c-8.284 0-15-6.716-15-15s6.716-15 15-15h127.979c8.284 0 15 6.716 15 15s-6.716 15-15 15z" fill="#ffe61e"/><path d="m335.267 400.6c0-8.284-6.716-15-15-15h-64.267v30h64.267c8.284 0 15-6.716 15-15z" fill="#ffbe03"/><path d="m207.8 238.867h-160.667c-25.771 0-47.133-20.863-47.133-47.134 0-25.927 21.075-47.133 47.133-47.133h2.49c7.03-36.563 39.255-64.267 77.828-64.267 38.606 0 70.838 27.707 77.862 64.267h2.487c26.06 0 47.133 21.068 47.133 47.133 0 26.234-21.302 47.134-47.133 47.134z" fill="#fffaf5"/><path d="m207.8 238.867c25.831 0 47.133-20.9 47.133-47.133 0-26.065-21.073-47.133-47.133-47.133h-2.487c-7.024-36.56-39.255-64.267-77.862-64.267v158.533z" fill="#f5e9e4"/></g></svg>